<svg width="505" height="136" viewBox="0 0 505 136" fill="none" xmlns="http://www.w3.org/2000/svg">
  <g clip-path="url(#clip0_4888_254)">
    <path d="M280.57 110.74C280.658 110.588 280.704 110.415 280.704 110.24C280.704 110.064 280.658 109.892 280.57 109.74L253.83 68.38C253.41 67.8167 253.182 67.1327 253.182 66.4299C253.182 65.7271 253.41 65.0432 253.83 64.4799L278.94 25.83C279.04 25.6623 279.093 25.4704 279.093 25.2749C279.093 25.0795 279.04 24.8876 278.94 24.7199C278.843 24.54 278.699 24.3904 278.522 24.288C278.346 24.1856 278.144 24.1343 277.94 24.1399H277.19C273.13 24.1399 269.19 24.1399 265.3 24.1399C264.987 24.1443 264.681 24.2284 264.41 24.3841C264.138 24.5398 263.911 24.7621 263.75 25.0299C260.81 29.8899 257.82 34.0999 254.92 38.1699C252.13 42.0899 249.24 46.1699 246.41 50.7799C246.21 51.1099 245.99 51.4299 245.73 51.7799L244.67 53.3699L243.56 51.6699L242.89 50.6699C240.07 46.0399 237.19 42 234.41 38.1C231.63 34.2 228.58 29.91 225.67 25.1C225.554 24.8069 225.349 24.5581 225.083 24.3892C224.817 24.2203 224.504 24.1401 224.19 24.16H224.08H211.28C211.115 24.1604 210.953 24.2053 210.811 24.29C210.669 24.3747 210.552 24.4961 210.473 24.6414C210.395 24.7867 210.356 24.9505 210.363 25.1157C210.369 25.2808 210.42 25.4412 210.51 25.58L235.71 64.4399C236.071 65.0355 236.262 65.7185 236.262 66.4149C236.262 67.1113 236.071 67.7944 235.71 68.3899L208.71 109.99C208.629 110.128 208.586 110.285 208.586 110.445C208.586 110.605 208.629 110.762 208.71 110.9C208.786 111.04 208.899 111.157 209.036 111.238C209.174 111.319 209.33 111.361 209.49 111.36H222.23C222.636 111.371 223.037 111.27 223.389 111.069C223.742 110.868 224.033 110.575 224.23 110.22C227.17 105.35 230.16 101.13 233.06 97.0499C235.96 92.9699 238.75 89.0499 241.58 84.3999L244.66 79.3999L245.79 81.1C246.04 81.49 246.26 81.81 246.46 82.1C249.55 87.17 252.69 91.65 255.73 95.98C258.77 100.31 262.1 105.06 265.28 110.31C265.421 110.644 265.668 110.922 265.982 111.103C266.296 111.283 266.66 111.356 267.02 111.31L279.78 111.19C279.938 111.183 280.092 111.138 280.229 111.06C280.366 110.982 280.483 110.872 280.57 110.74Z" fill="#191A1A"/>
    <path d="M355.34 111.25C355.537 111.25 355.727 111.172 355.867 111.034C356.007 110.895 356.087 110.707 356.09 110.51L356.22 46.4401C356.22 45.8501 356.11 45.74 356.11 45.73C356.11 45.72 356 45.6201 355.35 45.6401L343.77 45.76C343.624 45.7652 343.486 45.8261 343.383 45.9303C343.281 46.0345 343.223 46.174 343.22 46.3201V55.6701L341.87 54.4401C341.2 53.8401 340.57 53.23 339.94 52.62C338.686 51.3686 337.35 50.2026 335.94 49.1301C331.017 45.6313 325.11 43.786 319.07 43.8601C311.091 43.8376 303.393 46.8102 297.5 52.1901C288.93 60.1901 285.15 70.3901 286.27 82.6001C287.64 97.5201 298.62 109.81 312.98 112.48C324.5 114.63 333.89 111.48 340.9 103.13C341.073 102.939 341.26 102.762 341.46 102.6L343.26 101V110C343.26 110.345 343.397 110.676 343.641 110.919C343.885 111.163 344.215 111.3 344.56 111.3L355.34 111.25ZM336.87 94.5601C334.797 96.5906 332.342 98.1909 329.648 99.2687C326.953 100.346 324.072 100.881 321.17 100.84H321.11C308.37 100.84 299.11 91.4501 299.05 78.5701C298.991 75.6005 299.523 72.6487 300.615 69.8865C301.707 67.1243 303.337 64.6067 305.41 62.48C307.486 60.4393 309.946 58.8307 312.648 57.7476C315.35 56.6644 318.239 56.1282 321.15 56.1701V56.1701C333.7 56.1701 343.15 65.77 343.21 78.46C343.274 81.43 342.746 84.3829 341.657 87.1469C340.569 89.911 338.942 92.4309 336.87 94.5601V94.5601Z" fill="#191A1A"/>
    <path d="M396.28 132.31C401.28 128.23 405.14 122.61 407.94 115.15L433.37 47C433.426 46.8592 433.446 46.7068 433.429 46.5563C433.412 46.4058 433.358 46.2618 433.272 46.1371C433.186 46.0125 433.07 45.911 432.936 45.8417C432.801 45.7724 432.651 45.7375 432.5 45.74L422 45.67C420.26 45.5 420.07 45.78 419.75 46.67C415.67 58.39 411.557 70.1033 407.41 81.81L405.18 88C404.76 89.2 404.32 90.4 403.83 91.73L402.37 95.73L401.14 92.93C400.9 92.39 400.71 91.98 400.54 91.56L397.04 83.03C392.1 71.03 387.177 59.01 382.27 46.97C382.099 46.5596 381.81 46.2092 381.44 45.9634C381.069 45.7177 380.634 45.5877 380.19 45.59H380.11H368.65C368.531 45.5898 368.415 45.62 368.312 45.6778C368.208 45.7356 368.122 45.819 368.06 45.92C367.992 46.0165 367.95 46.1293 367.94 46.2469C367.929 46.3646 367.95 46.4829 368 46.59L390.93 99.27C392.13 102.5 393.07 104.68 393.77 106.27C395.77 110.89 395.77 111.16 393.56 115.73C391.76 119.786 388.749 123.185 384.94 125.46C381.58 127.55 379.78 129.58 379.11 132.06L378.06 136C377.952 136.302 377.911 136.624 377.94 136.944C377.969 137.263 378.068 137.573 378.23 137.85C378.354 137.99 378.509 138.1 378.682 138.171C378.856 138.242 379.043 138.272 379.23 138.26C385.455 138.461 391.532 136.34 396.28 132.31V132.31Z" fill="#191A1A"/>
    <path d="M504.62 91.84C504.62 84.1 504.62 76.09 504.47 68.22C504.461 62.4364 502.446 56.835 498.77 52.37C494.16 46.78 487.99 44.02 479.89 43.93C471.04 43.81 464.5 46.77 459.97 52.93C459.807 53.1282 459.597 53.2828 459.36 53.38L459.08 53.53L457.87 54.25V50.8C457.87 49.25 457.87 47.8 457.87 46.29C457.873 46.2021 457.859 46.1143 457.828 46.0318C457.798 45.9494 457.75 45.874 457.69 45.81C457.637 45.7411 457.566 45.688 457.485 45.6563C457.404 45.6246 457.316 45.6155 457.23 45.63C454.62 45.63 452 45.63 449.38 45.63H446.15C445.651 45.5961 445.151 45.6263 444.66 45.72C444.539 46.5477 444.513 47.3863 444.58 48.22C444.58 49.22 444.58 50.48 444.58 52.12L444.52 101.88C444.52 103.34 444.47 104.62 444.44 105.73C444.35 108.34 444.29 110.07 444.94 110.73C445.662 111.217 446.538 111.42 447.4 111.3H455.79C456.32 111.3 456.829 111.089 457.204 110.714C457.579 110.339 457.79 109.83 457.79 109.3V77.12C457.763 74.471 458.015 71.8266 458.54 69.23C460.12 62.03 464.59 57.58 471.46 56.36C474.318 55.8602 477.242 55.8602 480.1 56.36C482.244 56.7086 484.27 57.5772 486 58.89C490.86 62.67 491.53 68.35 491.54 73.41V110.41C491.54 110.617 491.622 110.815 491.768 110.962C491.915 111.108 492.113 111.19 492.32 111.19H503.2C503.548 111.187 503.881 111.047 504.127 110.8C504.372 110.553 504.51 110.218 504.51 109.87V108.1C504.51 105.75 504.51 103.45 504.51 101.1C504.62 98.05 504.62 94.94 504.62 91.84Z" fill="#191A1A"/>
    <path d="M127 19.4799C134.087 28.7242 140.3 38.6066 145.56 49C145.771 49.4136 146.099 49.7563 146.503 49.986C146.906 50.2156 147.368 50.3221 147.832 50.2923C148.295 50.2626 148.74 50.0978 149.111 49.8184C149.482 49.539 149.763 49.1572 149.92 48.72C151.28 44.96 152.5 41.18 153.55 37.47C154.55 34.05 155.39 30.56 156.13 27.11C156.464 25.5604 156.398 23.9512 155.938 22.4343C155.478 20.9174 154.639 19.5427 153.5 18.44C142.308 7.7938 127.875 1.2002 112.5 -0.290039H112.36C112.116 -0.289619 111.878 -0.21855 111.674 -0.085434C111.47 0.0476818 111.309 0.237132 111.21 0.459961C111.09 0.70222 111.051 0.976367 111.098 1.24254C111.144 1.50871 111.275 1.75302 111.47 1.93996C117.03 7.43575 122.218 13.2954 127 19.4799V19.4799Z" fill="#544997"/>
    <path d="M165.86 35C165.761 34.8025 165.608 34.6374 165.418 34.524C165.229 34.4106 165.011 34.3537 164.79 34.36H164.64C164.402 34.3882 164.179 34.4887 164 34.6478C163.821 34.807 163.696 35.0171 163.64 35.25C163.3 36.6 162.93 37.97 162.53 39.35C160.416 46.7965 157.83 54.1012 154.79 61.22C153.49 64.2442 153.401 67.6517 154.54 70.74C158.094 80.4772 160.974 90.4474 163.16 100.58C163.201 100.83 163.319 101.062 163.499 101.241C163.678 101.421 163.91 101.539 164.16 101.58C164.402 101.622 164.651 101.586 164.872 101.479C165.093 101.371 165.274 101.196 165.39 100.98C170.978 90.8949 173.949 79.5704 174.033 68.0411C174.117 56.5118 171.311 45.1452 165.87 34.98L165.86 35Z" fill="#E51674"/>
    <path d="M119.1 25.19C112.913 17.1035 105.965 9.62923 98.35 2.86998C96.4507 1.18271 94.0005 0.247425 91.46 0.239995C90.6236 0.23921 89.7904 0.343355 88.98 0.549992C74.6764 4.16569 61.9063 12.2664 52.5403 23.6657C43.1743 35.065 37.7044 49.1639 36.9319 63.8972C36.1594 78.6305 40.1249 93.224 48.2475 105.54C56.37 117.857 68.2229 127.248 82.07 132.34C83.8424 132.998 85.7609 133.16 87.6184 132.807C89.4759 132.455 91.2019 131.602 92.61 130.34C112.36 112.63 128.14 92.77 139.5 71.34C140.429 69.5545 140.938 67.5799 140.987 65.5675C141.035 63.5551 140.622 61.5582 139.78 59.73C134.201 47.4788 127.264 35.8929 119.1 25.19V25.19Z" fill="#009278"/>
    <path d="M104.45 133.35C104.262 133.529 104.131 133.759 104.074 134.012C104.017 134.265 104.036 134.529 104.129 134.771C104.222 135.013 104.385 135.222 104.597 135.371C104.809 135.521 105.061 135.604 105.32 135.61H106.81C124.123 135.627 140.808 129.122 153.54 117.39C154.683 116.322 155.539 114.984 156.03 113.499C156.521 112.013 156.631 110.429 156.35 108.89C154.738 100.036 152.584 91.2897 149.9 82.7001C149.771 82.2558 149.511 81.8607 149.155 81.5664C148.798 81.272 148.361 81.0921 147.9 81.05H147.64C147.222 81.0461 146.81 81.1544 146.447 81.3637C146.085 81.573 145.786 81.8756 145.58 82.24C134.431 101.188 120.575 118.406 104.45 133.35V133.35Z" fill="#EF8F03"/>
    <path d="M2.12003 76.86C1.70267 76.8216 1.28381 76.9154 0.922601 77.128C0.561394 77.3406 0.276097 77.6612 0.107005 78.0447C-0.0620862 78.4282 -0.106427 78.8552 -0.0197555 79.2652C0.0669162 79.6753 0.280221 80.0477 0.590032 80.33C1.13003 80.89 1.67003 81.45 2.22003 82C21.3921 101.21 47.1016 112.487 74.22 113.58C76.6691 113.663 79.0998 113.13 81.2891 112.029C83.4785 110.929 85.3562 109.295 86.75 107.28C94.7652 95.6785 102.072 83.6032 108.63 71.12C108.962 70.4807 109.1 69.759 109.03 69.0423C108.959 68.3257 108.682 67.645 108.232 67.0827C107.782 66.5205 107.179 66.101 106.495 65.8751C105.811 65.6491 105.076 65.6265 104.38 65.81C72.19 74.32 37.8 78 2.12003 76.86Z" fill="#E2E4E4"/>
    <path d="M42.27 82.29C45.78 82.29 47.77 84.35 47.77 87.15C47.7899 87.985 47.5479 88.8052 47.078 89.4956C46.6082 90.1861 45.934 90.7121 45.15 91C46.0861 91.2484 46.9103 91.8069 47.4879 92.5843C48.0655 93.3617 48.3624 94.3121 48.33 95.28C48.33 98.21 46.14 100.33 42.75 100.33H35.75V82.29H42.27ZM41.73 89.75C43.34 89.75 44.31 88.86 44.31 87.48C44.31 86.1 43.41 85.24 41.71 85.24H39.24V89.75H41.73ZM42.09 97.42C43.8 97.42 44.81 96.53 44.81 95.07C44.8235 94.7267 44.7615 94.3847 44.6285 94.0679C44.4954 93.7511 44.2946 93.4674 44.04 93.2367C43.7854 93.0059 43.4834 92.8338 43.1551 92.7325C42.8268 92.6311 42.4803 92.603 42.14 92.65H39.24V97.42H42.09Z" fill="#111918"/>
    <path d="M61.78 96.7499C61.4163 97.9594 60.6564 99.0114 59.6226 99.7369C58.5888 100.462 57.3411 100.819 56.08 100.75C54.3715 100.705 52.7456 100.005 51.5388 98.7945C50.3321 97.5841 49.6369 95.9561 49.597 94.2474C49.5572 92.5387 50.1758 90.8801 51.3249 89.6148C52.4739 88.3496 54.0654 87.5745 55.77 87.45C59.64 87.45 61.96 89.92 61.96 93.95C61.96 94.43 61.96 94.95 61.96 94.95H52.96C53.0116 95.7439 53.3703 96.4866 53.9602 97.0205C54.5502 97.5545 55.3249 97.8376 56.12 97.8099C56.7448 97.8694 57.3712 97.7134 57.8951 97.3678C58.419 97.0222 58.8089 96.5077 59 95.9099L61.78 96.7499ZM58.62 92.6499C58.6168 92.2978 58.5395 91.9503 58.3931 91.63C58.2468 91.3097 58.0347 91.0238 57.7706 90.7908C57.5065 90.5579 57.1964 90.3831 56.8603 90.2778C56.5243 90.1726 56.1698 90.1392 55.82 90.1799C55.1257 90.1542 54.4479 90.3961 53.9268 90.8558C53.4057 91.3155 53.0811 91.9578 53.02 92.6499H58.62Z" fill="#111918"/>
    <path d="M68.18 87.8101H70.7V90.8101H68.18V96.0601C68.18 97.1501 68.69 97.5101 69.66 97.5101C69.9959 97.5104 70.3309 97.4769 70.66 97.4101V100.21C70.0501 100.439 69.4009 100.544 68.75 100.52C68.2214 100.576 67.6871 100.515 67.1847 100.341C66.6823 100.167 66.2241 99.8857 65.8426 99.5156C65.461 99.1455 65.1654 98.6962 64.9767 98.1993C64.7879 97.7024 64.7105 97.1701 64.75 96.6401V90.8101H62.55V87.8101H63.19C63.4549 87.831 63.7211 87.793 63.9696 87.6989C64.218 87.6047 64.4426 87.4568 64.6271 87.2656C64.8116 87.0744 64.9515 86.8447 65.0367 86.5931C65.1219 86.3414 65.1504 86.074 65.12 85.8101V84.05H68.18V87.8101Z" fill="#111918"/>
    <path d="M76 93.14L79.08 92.68C79.8 92.58 80.08 92.22 80.08 91.79C80.08 90.9 79.39 90.16 77.96 90.16C77.3788 90.1127 76.8023 90.2959 76.3551 90.6701C75.9079 91.0444 75.6259 91.5795 75.57 92.16L72.57 91.52C72.78 89.52 74.57 87.39 77.95 87.39C81.95 87.39 83.4 89.63 83.4 92.16V98.32C83.4062 98.9892 83.4563 99.6573 83.55 100.32H80.38C80.2987 99.8208 80.2586 99.3158 80.26 98.81C79.8573 99.414 79.3045 99.903 78.6559 100.229C78.0072 100.555 77.285 100.707 76.56 100.67C73.89 100.67 72.26 98.86 72.26 96.9C72.26 94.69 73.91 93.44 76 93.14ZM80 95.28V94.72L77.17 95.15C76.7553 95.1578 76.36 95.3274 76.0685 95.6226C75.7771 95.9178 75.6125 96.3152 75.61 96.73C75.6114 96.9365 75.6564 97.1405 75.7419 97.3285C75.8274 97.5165 75.9515 97.6843 76.1063 97.8211C76.261 97.9579 76.4428 98.0606 76.6399 98.1224C76.837 98.1843 77.0449 98.2039 77.25 98.18C78.7 98.18 80 97.49 80 95.28Z" fill="#111918"/>
  </g>
  <defs>
    <clipPath id="clip0_4888_254">
      <rect width="505" height="136" fill="white"/>
    </clipPath>
  </defs>
</svg>
